<svg xmlns="http://www.w3.org/2000/svg" width="1280" height="300" viewBox="0 0 1280 300" role="img"><title>the3dcoder. ADHD: Another Design Half Done.</title><desc>A block-built 3D printer nozzle rests above the center of a yellow four-square print bed. Seven colored puzzle pieces form a desk with a nostalgic castle silhouette. Original grid-drawn artwork.</desc><style>.mobile-layout{display:none}@media(max-width:600px){.desktop-layout{display:none}.mobile-layout{display:inline}}</style><rect x="0" y="0" width="1280" height="300" fill="#232f2b"/><g class="desktop-layout"><path fill="#eceee7" transform="translate(54 140) scale(0.104)" d="M216 10Q162 10 125.50-16Q89-42 89-89L89-408L13-408L13-418L103-454L191-564L205-564L205-454L341-454L341-408L205-408L205-111Q205-86 227.50-73.50Q250-61 280-61Q299-61 314.50-63Q330-65 343-68L346-67L346-53Q332-29 297.50-9.50Q263 10 216 10M651 0L411 0L411-16L476-48L476-636L414-685L414-695L582-750L592-750L592-390L596-390Q633-426 667.50-445Q702-464 746-464Q806-464 844.50-433.50Q883-403 883-343L883-48L948-16L948 0L708 0L708-16L767-46L767-300Q767-338 743.50-358.50Q720-379 684-379Q661-379 635-371Q609-363 592-349L592-46L651-16L651 0M1236 10Q1135 10 1077-49Q1019-108 1019-206Q1019-282 1050.50-340Q1082-398 1135-431Q1188-464 1252-464Q1332-464 1377-409Q1422-354 1423-254L1419-249L1131-249Q1131-205 1147-167.50Q1163-130 1198.50-107Q1234-84 1294-84Q1322-84 1354-92.50Q1386-101 1421-119L1424-119L1424-105Q1400-56 1351-23Q1302 10 1236 10M1232-419Q1192-419 1166.50-386.50Q1141-354 1134-294L1326-294Q1317-363 1293.50-391Q1270-419 1232-419M1725 10Q1661 10 1610.50-9Q1560-28 1531.50-59Q1503-90 1503-124Q1503-146 1510-153.50Q1517-161 1535-161L1609-161L1609-64Q1649-39 1715-39Q1774-39 1807-76Q1840-113 1840-172Q1840-241 1804-280Q1768-319 1679-319L1624-319L1624-365L1664-365Q1725-365 1765.50-402Q1806-439 1806-508Q1806-568 1781.50-594.50Q1757-621 1712-621Q1693-621 1670.50-616Q1648-611 1626-596L1626-485L1552-485Q1533-485 1526-492.50Q1519-500 1519-521Q1519-558 1549.50-592Q1580-626 1631-648Q1682-670 1744-670Q1804-670 1847.50-649Q1891-628 1915-592.50Q1939-557 1939-513Q1939-462 1897-419Q1855-376 1777-359Q1879-346 1926.50-298Q1974-250 1974-179Q1974-130 1941.50-86.50Q1909-43 1852.50-16.50Q1796 10 1725 10M2211 10Q2164 10 2125-15Q2086-40 2063-86Q2040-132 2040-194Q2040-279 2071.50-339Q2103-399 2157-431.50Q2211-464 2278-464Q2326-464 2362-455L2362-636L2295-686L2295-695L2468-750L2478-750L2478-45L2548-16L2548 0L2372 0L2363-50L2357-50Q2319-19 2284.50-4.50Q2250 10 2211 10M2156-222Q2156-142 2194-104.50Q2232-67 2282-67Q2322-67 2362-91L2362-377Q2344-394 2324.50-403Q2305-412 2281-412Q2247-412 2218.50-395Q2190-378 2173-336.50Q2156-295 2156-222M2832 10Q2768 10 2720-17Q2672-44 2645.50-92.50Q2619-141 2619-206Q2619-282 2652.50-340Q2686-398 2744-431Q2802-464 2874-464Q2922-464 2954-449Q2986-434 3002.50-415Q3019-396 3019-382Q3019-366 3000-352L2962-321L2877-421Q2870-422 2864-422Q2823-422 2792.50-399Q2762-376 2746-338Q2730-300 2730-253Q2730-173 2771.50-128.50Q2813-84 2888-84Q2917-84 2948.50-92.50Q2980-101 3016-119L3019-119L3019-105Q2995-57 2946.50-23.50Q2898 10 2832 10M3330 10Q3261 10 3209-21.50Q3157-53 3128-107Q3099-161 3099-227Q3099-293 3128-346.50Q3157-400 3209-432Q3261-464 3330-464Q3399-464 3451-432Q3503-400 3532-346.50Q3561-293 3561-227Q3561-161 3532-107Q3503-53 3451-21.50Q3399 10 3330 10M3342-37Q3376-37 3397.50-61Q3419-85 3429-124Q3439-163 3439-207Q3439-261 3427-309Q3415-357 3388.50-387.50Q3362-418 3320-418Q3286-418 3264-394Q3242-370 3231.50-331Q3221-292 3221-248Q3221-194 3233.50-145.50Q3246-97 3273-67Q3300-37 3342-37M3810 10Q3763 10 3724-15Q3685-40 3662-86Q3639-132 3639-194Q3639-279 3670.50-339Q3702-399 3756-431.50Q3810-464 3877-464Q3925-464 3961-455L3961-636L3894-686L3894-695L4067-750L4077-750L4077-45L4147-16L4147 0L3971 0L3962-50L3956-50Q3918-19 3883.50-4.50Q3849 10 3810 10M3755-222Q3755-142 3793-104.50Q3831-67 3881-67Q3921-67 3961-91L3961-377Q3943-394 3923.50-403Q3904-412 3880-412Q3846-412 3817.50-395Q3789-378 3772-336.50Q3755-295 3755-222M4435 10Q4334 10 4276-49Q4218-108 4218-206Q4218-282 4249.50-340Q4281-398 4334-431Q4387-464 4451-464Q4531-464 4576-409Q4621-354 4622-254L4618-249L4330-249Q4330-205 4346-167.50Q4362-130 4397.50-107Q4433-84 4493-84Q4521-84 4553-92.50Q4585-101 4620-119L4623-119L4623-105Q4599-56 4550-23Q4501 10 4435 10M4431-419Q4391-419 4365.50-386.50Q4340-354 4333-294L4525-294Q4516-363 4492.50-391Q4469-419 4431-419M4964 0L4707 0L4707-16L4772-48L4772-346L4710-395L4710-405L4868-464L4877-464L4887-371L4891-371Q4926-421 4956-441.50Q4986-462 5016-462Q5041-462 5055.50-450.50Q5070-439 5070-418Q5070-412 5066-397L5054-350L4956-372Q4916-358 4887-321L4887-48L4964-16"/><path fill="#c2cdc3" transform="translate(59 222) scale(0.034)" d="M587.89 0L479.49 0L430.18-150.88L164.06-150.88L111.33 0L1.95 0L292.48-725.10L318.36-725.10L587.89 0M402.34-222.66L300.78-537.60L189.94-222.66L402.34-222.66M807.13 0L663.09 0L663.09-715.33Q800.78-720.21 839.36-720.21Q989.26-720.21 1076.66-629.15Q1164.06-538.09 1164.06-386.72Q1164.06 0 807.13 0M760.74-627.44L760.74-92.77Q793.46-87.89 841.80-87.89Q944.34-87.89 1002.93-164.79Q1061.52-241.70 1061.52-378.42Q1061.52-632.32 833.50-632.32Q819.82-632.32 760.74-627.44M1784.18 0L1686.52 0L1686.52-345.70L1374.02-345.70L1374.02 0L1276.37 0L1276.37-715.33L1374.02-715.33L1374.02-428.71L1686.52-428.71L1686.52-715.33L1784.18-715.33L1784.18 0M2074.71 0L1930.66 0L1930.66-715.33Q2068.36-720.21 2106.93-720.21Q2256.84-720.21 2344.24-629.15Q2431.64-538.09 2431.64-386.72Q2431.64 0 2074.71 0M2028.32-627.44L2028.32-92.77Q2061.04-87.89 2109.38-87.89Q2211.91-87.89 2270.51-164.79Q2329.10-241.70 2329.10-378.42Q2329.10-632.32 2101.07-632.32Q2087.40-632.32 2028.32-627.44M2643.55-532.71Q2673.83-532.71 2695.31-511.23Q2716.80-489.75 2716.80-459.47Q2716.80-429.20 2695.31-407.47Q2673.83-385.74 2643.55-385.74Q2613.28-385.74 2591.80-407.47Q2570.31-429.20 2570.31-459.47Q2570.31-489.75 2591.80-511.23Q2613.28-532.71 2643.55-532.71M2643.55-137.21Q2673.83-137.21 2695.31-115.72Q2716.80-94.24 2716.80-63.96Q2716.80-33.69 2695.31-11.96Q2673.83 9.77 2643.55 9.77Q2613.28 9.77 2591.80-11.96Q2570.31-33.69 2570.31-63.96Q2570.31-94.24 2591.80-115.72Q2613.28-137.21 2643.55-137.21M3671.88 0L3563.48 0L3514.16-150.88L3248.05-150.88L3195.31 0L3085.94 0L3376.46-725.10L3402.34-725.10L3671.88 0M3486.33-222.66L3384.77-537.60L3273.93-222.66L3486.33-222.66M4154.30 0L4061.52 0L4061.52-304.20Q4061.52-387.70 4036.38-421.14Q4011.23-454.59 3952.15-454.59Q3920.41-454.59 3885.74-435.55Q3851.07-416.50 3832.52-388.67L3832.52 0L3739.75 0L3739.75-522.95L3803.22-522.95L3832.52-455.57Q3878.42-532.71 3982.42-532.71Q4154.30-532.71 4154.30-323.73L4154.30 0M4251.95-262.70Q4251.95-383.79 4317.14-458.25Q4382.32-532.71 4488.77-532.71Q4601.07-532.71 4663.09-461.18Q4725.10-389.65 4725.10-262.70Q4725.10-136.23 4661.62-63.23Q4598.14 9.77 4488.77 9.77Q4376.95 9.77 4314.45-63.96Q4251.95-137.70 4251.95-262.70M4349.61-262.70Q4349.61-65.92 4488.77-65.92Q4553.71-65.92 4590.58-118.65Q4627.44-171.39 4627.44-262.70Q4627.44-457.03 4488.77-457.03Q4425.29-457.03 4387.45-405.27Q4349.61-353.52 4349.61-262.70M4855.96-152.83L4855.96-449.71L4795.41-449.71L4795.41-522.95L4855.96-522.95L4855.96-632.32L4948.73-667.97L4948.73-522.95L5092.29-522.95L5092.29-449.71L4948.73-449.71L4948.73-189.94Q4948.73-124.02 4970.95-96.19Q4993.16-68.36 5042.48-68.36Q5078.13-68.36 5116.21-86.43L5129.88-4.88Q5072.27 9.77 5003.42 9.77Q4941.41 9.77 4898.68-36.38Q4855.96-82.52 4855.96-152.83M5634.28 0L5541.50 0L5541.50-328.61Q5541.50-387.21 5512.70-420.90Q5483.89-454.59 5431.64-454.59Q5397.95-454.59 5364.01-434.81Q5330.08-415.04 5312.01-388.67L5312.01 0L5219.24 0L5219.24-737.30L5312.01-737.30L5312.01-465.33Q5330.57-494.14 5371.83-513.43Q5413.09-532.71 5457.03-532.71Q5540.04-532.71 5587.16-478.03Q5634.28-423.34 5634.28-328.61L5634.28 0M6206.05-252.44L5829.10-252.44Q5829.10-160.64 5879.39-111.33Q5923.83-68.36 5993.65-68.36Q6073.24-68.36 6126.46-114.75L6165.53-47.85Q6144.04-26.37 6099.61-10.74Q6043.95 9.77 5975.59 9.77Q5876.95 9.77 5808.11-57.13Q5731.45-130.86 5731.45-255.37Q5731.45-384.77 5810.06-462.89Q5880.37-532.71 5976.56-532.71Q6088.38-532.71 6151.86-469.73Q6213.38-409.18 6213.38-309.08Q6213.38-278.32 6206.05-252.44M5980.96-454.59Q5918.95-454.59 5876.95-414.55Q5836.91-376.46 5831.54-319.82L6121.09-319.82Q6121.09-375.98 6085.94-413.57Q6047.36-454.59 5980.96-454.59M6633.79-523.93L6595.21-433.59Q6564.94-454.59 6534.18-454.59Q6484.86-454.59 6448-409.18Q6411.13-363.77 6411.13-299.80L6411.13 0L6318.36 0L6318.36-522.95L6411.13-522.95L6411.13-439.45Q6461.91-532.71 6562.01-532.71Q6586.91-532.71 6633.79-523.93M7152.34 0L7008.30 0L7008.30-715.33Q7146-720.21 7184.57-720.21Q7334.47-720.21 7421.88-629.15Q7509.28-538.09 7509.28-386.72Q7509.28 0 7152.34 0M7105.96-627.44L7105.96-92.77Q7138.67-87.89 7187.01-87.89Q7289.55-87.89 7348.14-164.79Q7406.74-241.70 7406.74-378.42Q7406.74-632.32 7178.71-632.32Q7165.04-632.32 7105.96-627.44M8054.69-252.44L7677.73-252.44Q7677.73-160.64 7728.03-111.33Q7772.46-68.36 7842.29-68.36Q7921.88-68.36 7975.10-114.75L8014.16-47.85Q7992.68-26.37 7948.24-10.74Q7892.58 9.77 7824.22 9.77Q7725.59 9.77 7656.74-57.13Q7580.08-130.86 7580.08-255.37Q7580.08-384.77 7658.69-462.89Q7729-532.71 7825.20-532.71Q7937.01-532.71 8000.49-469.73Q8062.01-409.18 8062.01-309.08Q8062.01-278.32 8054.69-252.44M7829.59-454.59Q7767.58-454.59 7725.59-414.55Q7685.55-376.46 7680.18-319.82L7969.73-319.82Q7969.73-375.98 7934.57-413.57Q7896-454.59 7829.59-454.59M8125.49-31.25L8158.20-119.14Q8235.84-68.36 8283.20-68.36Q8369.14-68.36 8369.14-140.62Q8369.14-192.38 8286.13-229.49Q8222.17-258.79 8199.95-273.93Q8177.73-289.06 8161.38-308.35Q8145.02-327.64 8136.96-349.37Q8128.91-371.09 8128.91-396Q8128.91-460.45 8175.78-496.58Q8222.66-532.71 8298.34-532.71Q8355.47-532.71 8442.38-496.58L8416.02-410.64Q8360.84-454.59 8305.18-454.59Q8271.97-454.59 8249.27-438.96Q8226.56-423.34 8226.56-399.41Q8226.56-349.12 8283.69-323.24L8350.10-292.97Q8411.13-265.14 8438.96-229.49Q8466.80-193.85 8466.80-140.14Q8466.80-69.82 8417.48-30.03Q8368.16 9.77 8280.76 9.77Q8198.24 9.77 8125.49-31.25M8660.16-720.70Q8684.08-720.70 8700.93-703.86Q8717.77-687.01 8717.77-663.57Q8717.77-639.65 8700.93-622.80Q8684.08-605.96 8660.16-605.96Q8636.72-605.96 8619.87-622.80Q8603.03-639.65 8603.03-663.57Q8603.03-687.50 8619.63-704.10Q8636.23-720.70 8660.16-720.70M8702.15 0L8609.38 0L8609.38-444.82L8537.60-444.82L8537.60-522.95L8702.15-522.95L8702.15 0M8830.57 143.07L8880.86 68.85Q8961.91 123.05 9030.27 123.05Q9093.26 123.05 9129.64 101.32Q9166.02 79.59 9166.02 47.36Q9166.02-16.11 9074.22-16.11Q9058.59-16.11 9017.58-8.30Q8976.56-0.49 8953.61-0.49Q8842.29-0.49 8842.29-84.47Q8842.29-110.35 8868.41-131.35Q8894.53-152.34 8933.11-161.62Q8822.75-213.38 8822.75-341.31Q8822.75-423.34 8879.88-478.03Q8937.01-532.71 9021-532.71Q9098.14-532.71 9141.60-500.98L9187.99-556.64L9248.54-499.51L9192.87-457.52Q9228.52-411.13 9228.52-336.43Q9228.52-257.32 9179.20-203.61Q9129.88-149.90 9049.80-142.09L8973.14-134.28Q8959.47-132.81 8936.52-123.78Q8913.57-114.75 8913.57-100.10Q8913.57-80.08 8961.43-80.08Q8982.42-80.08 9026.86-87.65Q9071.29-95.21 9092.77-95.21Q9169.92-95.21 9213.13-58.35Q9256.35-21.48 9256.35 43.95Q9256.35 116.21 9191.65 160.64Q9126.95 205.08 9027.83 205.08Q8977.05 205.08 8920.90 187.01Q8864.75 168.95 8830.57 143.07M9027.34-458.01Q8979-458.01 8948.49-423.83Q8917.97-389.65 8917.97-340.82Q8917.97-286.13 8947.51-250.24Q8977.05-214.36 9027.34-214.36Q9076.66-214.36 9104.49-249.27Q9132.32-284.18 9132.32-340.82Q9132.32-389.65 9102.29-423.83Q9072.27-458.01 9027.34-458.01M9766.11 0L9673.34 0L9673.34-304.20Q9673.34-387.70 9648.19-421.14Q9623.05-454.59 9563.96-454.59Q9532.23-454.59 9497.56-435.55Q9462.89-416.50 9444.34-388.67L9444.34 0L9351.56 0L9351.56-522.95L9415.04-522.95L9444.34-455.57Q9490.23-532.71 9594.24-532.71Q9766.11-532.71 9766.11-323.73L9766.11 0M10714.36 0L10616.70 0L10616.70-345.70L10304.20-345.70L10304.20 0L10206.54 0L10206.54-715.33L10304.20-715.33L10304.20-428.71L10616.70-428.71L10616.70-715.33L10714.36-715.33L10714.36 0M11148.93-60.06Q11093.26 9.77 10978.52 9.77Q10916.99 9.77 10871.83-34.91Q10826.66-79.59 10826.66-146Q10826.66-225.59 10896.24-280.52Q10965.82-335.45 11073.73-335.45Q11103.03-335.45 11140.14-322.75Q11140.14-449.71 11026.86-449.71Q10939.94-449.71 10893.07-402.83L10854-480.47Q10880.37-501.95 10927-517.33Q10973.63-532.71 11016.11-532.71Q11129.88-532.71 11181.40-480.96Q11232.91-429.20 11232.91-316.41L11232.91-128.91Q11232.91-60.06 11273.93-37.11L11273.93 9.28Q11217.29 9.28 11189.21-6.84Q11161.13-22.95 11148.93-60.06M11140.14-130.37L11140.14-256.84Q11096.19-266.60 11078.61-266.60Q11008.30-266.60 10963.87-230.47Q10919.43-194.34 10919.43-145.02Q10919.43-63.48 11015.63-63.48Q11085.94-63.48 11140.14-130.37M11386.23-147.95L11386.23-737.30L11479-737.30L11479-163.57Q11479-121.58 11503.17-97.41Q11527.34-73.24 11566.41-73.24L11566.41 9.77Q11386.23 9.77 11386.23-147.95M11982.42-722.66L11956.54-654.30Q11928.22-664.06 11903.81-664.06Q11861.33-664.06 11833.74-631.84Q11806.15-599.61 11806.15-550.29Q11806.15-537.11 11808.59-522.95L11915.04-522.95L11915.04-444.82L11808.59-444.82L11808.59 0L11715.82 0L11715.82-444.82L11639.65-444.82L11639.65-522.95L11715.82-522.95Q11715.82-623.05 11765.14-680.18Q11814.45-737.30 11895.51-737.30Q11936.04-737.30 11982.42-722.66M12496.09 0L12352.05 0L12352.05-715.33Q12489.75-720.21 12528.32-720.21Q12678.22-720.21 12765.63-629.15Q12853.03-538.09 12853.03-386.72Q12853.03 0 12496.09 0M12449.71-627.44L12449.71-92.77Q12482.42-87.89 12530.76-87.89Q12633.30-87.89 12691.89-164.79Q12750.49-241.70 12750.49-378.42Q12750.49-632.32 12522.46-632.32Q12508.79-632.32 12449.71-627.44M12923.83-262.70Q12923.83-383.79 12989.01-458.25Q13054.20-532.71 13160.64-532.71Q13272.95-532.71 13334.96-461.18Q13396.97-389.65 13396.97-262.70Q13396.97-136.23 13333.50-63.23Q13270.02 9.77 13160.64 9.77Q13048.83 9.77 12986.33-63.96Q12923.83-137.70 12923.83-262.70M13021.48-262.70Q13021.48-65.92 13160.64-65.92Q13225.59-65.92 13262.45-118.65Q13299.32-171.39 13299.32-262.70Q13299.32-457.03 13160.64-457.03Q13097.17-457.03 13059.33-405.27Q13021.48-353.52 13021.48-262.70M13909.18 0L13816.41 0L13816.41-304.20Q13816.41-387.70 13791.26-421.14Q13766.11-454.59 13707.03-454.59Q13675.29-454.59 13640.63-435.55Q13605.96-416.50 13587.40-388.67L13587.40 0L13494.63 0L13494.63-522.95L13558.11-522.95L13587.40-455.57Q13633.30-532.71 13737.30-532.71Q13909.18-532.71 13909.18-323.73L13909.18 0M14481.45-252.44L14104.49-252.44Q14104.49-160.64 14154.79-111.33Q14199.22-68.36 14269.04-68.36Q14348.63-68.36 14401.86-114.75L14440.92-47.85Q14419.43-26.37 14375-10.74Q14319.34 9.77 14250.98 9.77Q14152.34 9.77 14083.50-57.13Q14006.84-130.86 14006.84-255.37Q14006.84-384.77 14085.45-462.89Q14155.76-532.71 14251.95-532.71Q14363.77-532.71 14427.25-469.73Q14488.77-409.18 14488.77-309.08Q14488.77-278.32 14481.45-252.44M14256.35-454.59Q14194.34-454.59 14152.34-414.55Q14112.30-376.46 14106.93-319.82L14396.48-319.82Q14396.48-375.98 14361.33-413.57Q14322.75-454.59 14256.35-454.59"/><rect x="918" y="129" width="62" height="124" fill="#596a63"/><rect x="1104" y="129" width="62" height="124" fill="#596a63"/><rect x="980" y="129" width="31" height="31" fill="#596a63"/><rect x="1073" y="129" width="31" height="31" fill="#596a63"/><path d="M918,160h62m124,0h62" stroke="#232f2b" stroke-width="3"/><path d="M918,191h62m124,0h62" stroke="#232f2b" stroke-width="3"/><path d="M918,222h62m124,0h62" stroke="#232f2b" stroke-width="3"/><path d="M918,253h62m124,0h62" stroke="#232f2b" stroke-width="3"/><rect x="919.5" y="37.5" width="28" height="28" fill="#87a88a"/><rect x="919.5" y="68.5" width="28" height="28" fill="#87a88a"/><rect x="919.5" y="99.5" width="28" height="28" fill="#87a88a"/><rect x="950.5" y="99.5" width="28" height="28" fill="#87a88a"/><rect x="981.5" y="99.5" width="28" height="28" fill="#d7b469"/><rect x="1012.5" y="99.5" width="28" height="28" fill="#d7b469"/><rect x="1043.5" y="99.5" width="28" height="28" fill="#d7b469"/><rect x="1074.5" y="99.5" width="28" height="28" fill="#d7b469"/><rect x="1136.5" y="37.5" width="28" height="28" fill="#8faab6"/><rect x="1136.5" y="68.5" width="28" height="28" fill="#8faab6"/><rect x="1136.5" y="99.5" width="28" height="28" fill="#8faab6"/><rect x="1105.5" y="99.5" width="28" height="28" fill="#8faab6"/><rect x="919.5" y="130.5" width="28" height="28" fill="#af91c1"/><rect x="950.5" y="130.5" width="28" height="28" fill="#af91c1"/><rect x="981.5" y="130.5" width="28" height="28" fill="#af91c1"/><rect x="950.5" y="161.5" width="28" height="28" fill="#af91c1"/><rect x="919.5" y="161.5" width="28" height="28" fill="#cb8580"/><rect x="919.5" y="192.5" width="28" height="28" fill="#cb8580"/><rect x="950.5" y="192.5" width="28" height="28" fill="#cb8580"/><rect x="950.5" y="223.5" width="28" height="28" fill="#cb8580"/><rect x="1105.5" y="192.5" width="28" height="28" fill="#d29b6c"/><rect x="1136.5" y="192.5" width="28" height="28" fill="#d29b6c"/><rect x="1105.5" y="223.5" width="28" height="28" fill="#d29b6c"/><rect x="1136.5" y="223.5" width="28" height="28" fill="#d29b6c"/><rect x="1074.5" y="130.5" width="28" height="28" fill="#83b6b7"/><rect x="1105.5" y="130.5" width="28" height="28" fill="#83b6b7"/><rect x="1105.5" y="161.5" width="28" height="28" fill="#83b6b7"/><rect x="1136.5" y="161.5" width="28" height="28" fill="#83b6b7"/><g aria-label="Block-built 3D printer nozzle"><rect x="1034.75" y="36.5" width="6.75" height="6.75" fill="#afbeb3"/><rect x="1042.5" y="36.5" width="6.75" height="6.75" fill="#afbeb3"/><rect x="1019.25" y="44.25" width="6.75" height="6.75" fill="#afbeb3"/><rect x="1027" y="44.25" width="6.75" height="6.75" fill="#afbeb3"/><rect x="1034.75" y="44.25" width="6.75" height="6.75" fill="#afbeb3"/><rect x="1042.5" y="44.25" width="6.75" height="6.75" fill="#afbeb3"/><rect x="1050.25" y="44.25" width="6.75" height="6.75" fill="#afbeb3"/><rect x="1058" y="44.25" width="6.75" height="6.75" fill="#afbeb3"/><rect x="1034.75" y="52" width="6.75" height="6.75" fill="#afbeb3"/><rect x="1042.5" y="52" width="6.75" height="6.75" fill="#afbeb3"/><rect x="1019.25" y="59.75" width="6.75" height="6.75" fill="#afbeb3"/><rect x="1027" y="59.75" width="6.75" height="6.75" fill="#afbeb3"/><rect x="1034.75" y="59.75" width="6.75" height="6.75" fill="#afbeb3"/><rect x="1042.5" y="59.75" width="6.75" height="6.75" fill="#afbeb3"/><rect x="1050.25" y="59.75" width="6.75" height="6.75" fill="#afbeb3"/><rect x="1058" y="59.75" width="6.75" height="6.75" fill="#afbeb3"/><rect x="1027" y="67.5" width="6.75" height="6.75" fill="#afbeb3"/><rect x="1034.75" y="67.5" width="6.75" height="6.75" fill="#afbeb3"/><rect x="1042.5" y="67.5" width="6.75" height="6.75" fill="#afbeb3"/><rect x="1050.25" y="67.5" width="6.75" height="6.75" fill="#afbeb3"/><rect x="1019.25" y="75.25" width="6.75" height="6.75" fill="#d29b6c"/><rect x="1027" y="75.25" width="6.75" height="6.75" fill="#d29b6c"/><rect x="1034.75" y="75.25" width="6.75" height="6.75" fill="#d29b6c"/><rect x="1042.5" y="75.25" width="6.75" height="6.75" fill="#d29b6c"/><rect x="1050.25" y="75.25" width="6.75" height="6.75" fill="#d29b6c"/><rect x="1058" y="75.25" width="6.75" height="6.75" fill="#d29b6c"/><rect x="1027" y="83" width="6.75" height="6.75" fill="#d7b469"/><rect x="1034.75" y="83" width="6.75" height="6.75" fill="#d7b469"/><rect x="1042.5" y="83" width="6.75" height="6.75" fill="#d7b469"/><rect x="1050.25" y="83" width="6.75" height="6.75" fill="#d7b469"/><rect x="1034.75" y="90.75" width="6.75" height="6.75" fill="#d7b469"/><rect x="1042.5" y="90.75" width="6.75" height="6.75" fill="#d7b469"/></g><path d="M902.5,255h279" stroke="#eceee7" stroke-width="3"/></g><g class="mobile-layout" transform="scale(2)"><path fill="#eceee7" transform="translate(24 60) scale(0.061)" d="M216 10Q162 10 125.50-16Q89-42 89-89L89-408L13-408L13-418L103-454L191-564L205-564L205-454L341-454L341-408L205-408L205-111Q205-86 227.50-73.50Q250-61 280-61Q299-61 314.50-63Q330-65 343-68L346-67L346-53Q332-29 297.50-9.50Q263 10 216 10M651 0L411 0L411-16L476-48L476-636L414-685L414-695L582-750L592-750L592-390L596-390Q633-426 667.50-445Q702-464 746-464Q806-464 844.50-433.50Q883-403 883-343L883-48L948-16L948 0L708 0L708-16L767-46L767-300Q767-338 743.50-358.50Q720-379 684-379Q661-379 635-371Q609-363 592-349L592-46L651-16L651 0M1236 10Q1135 10 1077-49Q1019-108 1019-206Q1019-282 1050.50-340Q1082-398 1135-431Q1188-464 1252-464Q1332-464 1377-409Q1422-354 1423-254L1419-249L1131-249Q1131-205 1147-167.50Q1163-130 1198.50-107Q1234-84 1294-84Q1322-84 1354-92.50Q1386-101 1421-119L1424-119L1424-105Q1400-56 1351-23Q1302 10 1236 10M1232-419Q1192-419 1166.50-386.50Q1141-354 1134-294L1326-294Q1317-363 1293.50-391Q1270-419 1232-419M1725 10Q1661 10 1610.50-9Q1560-28 1531.50-59Q1503-90 1503-124Q1503-146 1510-153.50Q1517-161 1535-161L1609-161L1609-64Q1649-39 1715-39Q1774-39 1807-76Q1840-113 1840-172Q1840-241 1804-280Q1768-319 1679-319L1624-319L1624-365L1664-365Q1725-365 1765.50-402Q1806-439 1806-508Q1806-568 1781.50-594.50Q1757-621 1712-621Q1693-621 1670.50-616Q1648-611 1626-596L1626-485L1552-485Q1533-485 1526-492.50Q1519-500 1519-521Q1519-558 1549.50-592Q1580-626 1631-648Q1682-670 1744-670Q1804-670 1847.50-649Q1891-628 1915-592.50Q1939-557 1939-513Q1939-462 1897-419Q1855-376 1777-359Q1879-346 1926.50-298Q1974-250 1974-179Q1974-130 1941.50-86.50Q1909-43 1852.50-16.50Q1796 10 1725 10M2211 10Q2164 10 2125-15Q2086-40 2063-86Q2040-132 2040-194Q2040-279 2071.50-339Q2103-399 2157-431.50Q2211-464 2278-464Q2326-464 2362-455L2362-636L2295-686L2295-695L2468-750L2478-750L2478-45L2548-16L2548 0L2372 0L2363-50L2357-50Q2319-19 2284.50-4.50Q2250 10 2211 10M2156-222Q2156-142 2194-104.50Q2232-67 2282-67Q2322-67 2362-91L2362-377Q2344-394 2324.50-403Q2305-412 2281-412Q2247-412 2218.50-395Q2190-378 2173-336.50Q2156-295 2156-222M2832 10Q2768 10 2720-17Q2672-44 2645.50-92.50Q2619-141 2619-206Q2619-282 2652.50-340Q2686-398 2744-431Q2802-464 2874-464Q2922-464 2954-449Q2986-434 3002.50-415Q3019-396 3019-382Q3019-366 3000-352L2962-321L2877-421Q2870-422 2864-422Q2823-422 2792.50-399Q2762-376 2746-338Q2730-300 2730-253Q2730-173 2771.50-128.50Q2813-84 2888-84Q2917-84 2948.50-92.50Q2980-101 3016-119L3019-119L3019-105Q2995-57 2946.50-23.50Q2898 10 2832 10M3330 10Q3261 10 3209-21.50Q3157-53 3128-107Q3099-161 3099-227Q3099-293 3128-346.50Q3157-400 3209-432Q3261-464 3330-464Q3399-464 3451-432Q3503-400 3532-346.50Q3561-293 3561-227Q3561-161 3532-107Q3503-53 3451-21.50Q3399 10 3330 10M3342-37Q3376-37 3397.50-61Q3419-85 3429-124Q3439-163 3439-207Q3439-261 3427-309Q3415-357 3388.50-387.50Q3362-418 3320-418Q3286-418 3264-394Q3242-370 3231.50-331Q3221-292 3221-248Q3221-194 3233.50-145.50Q3246-97 3273-67Q3300-37 3342-37M3810 10Q3763 10 3724-15Q3685-40 3662-86Q3639-132 3639-194Q3639-279 3670.50-339Q3702-399 3756-431.50Q3810-464 3877-464Q3925-464 3961-455L3961-636L3894-686L3894-695L4067-750L4077-750L4077-45L4147-16L4147 0L3971 0L3962-50L3956-50Q3918-19 3883.50-4.50Q3849 10 3810 10M3755-222Q3755-142 3793-104.50Q3831-67 3881-67Q3921-67 3961-91L3961-377Q3943-394 3923.50-403Q3904-412 3880-412Q3846-412 3817.50-395Q3789-378 3772-336.50Q3755-295 3755-222M4435 10Q4334 10 4276-49Q4218-108 4218-206Q4218-282 4249.50-340Q4281-398 4334-431Q4387-464 4451-464Q4531-464 4576-409Q4621-354 4622-254L4618-249L4330-249Q4330-205 4346-167.50Q4362-130 4397.50-107Q4433-84 4493-84Q4521-84 4553-92.50Q4585-101 4620-119L4623-119L4623-105Q4599-56 4550-23Q4501 10 4435 10M4431-419Q4391-419 4365.50-386.50Q4340-354 4333-294L4525-294Q4516-363 4492.50-391Q4469-419 4431-419M4964 0L4707 0L4707-16L4772-48L4772-346L4710-395L4710-405L4868-464L4877-464L4887-371L4891-371Q4926-421 4956-441.50Q4986-462 5016-462Q5041-462 5055.50-450.50Q5070-439 5070-418Q5070-412 5066-397L5054-350L4956-372Q4916-358 4887-321L4887-48L4964-16"/><path fill="#c2cdc3" transform="translate(26 101) scale(0.027)" d="M587.89 0L479.49 0L430.18-150.88L164.06-150.88L111.33 0L1.95 0L292.48-725.10L318.36-725.10L587.89 0M402.34-222.66L300.78-537.60L189.94-222.66L402.34-222.66M807.13 0L663.09 0L663.09-715.33Q800.78-720.21 839.36-720.21Q989.26-720.21 1076.66-629.15Q1164.06-538.09 1164.06-386.72Q1164.06 0 807.13 0M760.74-627.44L760.74-92.77Q793.46-87.89 841.80-87.89Q944.34-87.89 1002.93-164.79Q1061.52-241.70 1061.52-378.42Q1061.52-632.32 833.50-632.32Q819.82-632.32 760.74-627.44M1784.18 0L1686.52 0L1686.52-345.70L1374.02-345.70L1374.02 0L1276.37 0L1276.37-715.33L1374.02-715.33L1374.02-428.71L1686.52-428.71L1686.52-715.33L1784.18-715.33L1784.18 0M2074.71 0L1930.66 0L1930.66-715.33Q2068.36-720.21 2106.93-720.21Q2256.84-720.21 2344.24-629.15Q2431.64-538.09 2431.64-386.72Q2431.64 0 2074.71 0M2028.32-627.44L2028.32-92.77Q2061.04-87.89 2109.38-87.89Q2211.91-87.89 2270.51-164.79Q2329.10-241.70 2329.10-378.42Q2329.10-632.32 2101.07-632.32Q2087.40-632.32 2028.32-627.44M2643.55-532.71Q2673.83-532.71 2695.31-511.23Q2716.80-489.75 2716.80-459.47Q2716.80-429.20 2695.31-407.47Q2673.83-385.74 2643.55-385.74Q2613.28-385.74 2591.80-407.47Q2570.31-429.20 2570.31-459.47Q2570.31-489.75 2591.80-511.23Q2613.28-532.71 2643.55-532.71M2643.55-137.21Q2673.83-137.21 2695.31-115.72Q2716.80-94.24 2716.80-63.96Q2716.80-33.69 2695.31-11.96Q2673.83 9.77 2643.55 9.77Q2613.28 9.77 2591.80-11.96Q2570.31-33.69 2570.31-63.96Q2570.31-94.24 2591.80-115.72Q2613.28-137.21 2643.55-137.21M3671.88 0L3563.48 0L3514.16-150.88L3248.05-150.88L3195.31 0L3085.94 0L3376.46-725.10L3402.34-725.10L3671.88 0M3486.33-222.66L3384.77-537.60L3273.93-222.66L3486.33-222.66M4154.30 0L4061.52 0L4061.52-304.20Q4061.52-387.70 4036.38-421.14Q4011.23-454.59 3952.15-454.59Q3920.41-454.59 3885.74-435.55Q3851.07-416.50 3832.52-388.67L3832.52 0L3739.75 0L3739.75-522.95L3803.22-522.95L3832.52-455.57Q3878.42-532.71 3982.42-532.71Q4154.30-532.71 4154.30-323.73L4154.30 0M4251.95-262.70Q4251.95-383.79 4317.14-458.25Q4382.32-532.71 4488.77-532.71Q4601.07-532.71 4663.09-461.18Q4725.10-389.65 4725.10-262.70Q4725.10-136.23 4661.62-63.23Q4598.14 9.77 4488.77 9.77Q4376.95 9.77 4314.45-63.96Q4251.95-137.70 4251.95-262.70M4349.61-262.70Q4349.61-65.92 4488.77-65.92Q4553.71-65.92 4590.58-118.65Q4627.44-171.39 4627.44-262.70Q4627.44-457.03 4488.77-457.03Q4425.29-457.03 4387.45-405.27Q4349.61-353.52 4349.61-262.70M4855.96-152.83L4855.96-449.71L4795.41-449.71L4795.41-522.95L4855.96-522.95L4855.96-632.32L4948.73-667.97L4948.73-522.95L5092.29-522.95L5092.29-449.71L4948.73-449.71L4948.73-189.94Q4948.73-124.02 4970.95-96.19Q4993.16-68.36 5042.48-68.36Q5078.13-68.36 5116.21-86.43L5129.88-4.88Q5072.27 9.77 5003.42 9.77Q4941.41 9.77 4898.68-36.38Q4855.96-82.52 4855.96-152.83M5634.28 0L5541.50 0L5541.50-328.61Q5541.50-387.21 5512.70-420.90Q5483.89-454.59 5431.64-454.59Q5397.95-454.59 5364.01-434.81Q5330.08-415.04 5312.01-388.67L5312.01 0L5219.24 0L5219.24-737.30L5312.01-737.30L5312.01-465.33Q5330.57-494.14 5371.83-513.43Q5413.09-532.71 5457.03-532.71Q5540.04-532.71 5587.16-478.03Q5634.28-423.34 5634.28-328.61L5634.28 0M6206.05-252.44L5829.10-252.44Q5829.10-160.64 5879.39-111.33Q5923.83-68.36 5993.65-68.36Q6073.24-68.36 6126.46-114.75L6165.53-47.85Q6144.04-26.37 6099.61-10.74Q6043.95 9.77 5975.59 9.77Q5876.95 9.77 5808.11-57.13Q5731.45-130.86 5731.45-255.37Q5731.45-384.77 5810.06-462.89Q5880.37-532.71 5976.56-532.71Q6088.38-532.71 6151.86-469.73Q6213.38-409.18 6213.38-309.08Q6213.38-278.32 6206.05-252.44M5980.96-454.59Q5918.95-454.59 5876.95-414.55Q5836.91-376.46 5831.54-319.82L6121.09-319.82Q6121.09-375.98 6085.94-413.57Q6047.36-454.59 5980.96-454.59M6633.79-523.93L6595.21-433.59Q6564.94-454.59 6534.18-454.59Q6484.86-454.59 6448-409.18Q6411.13-363.77 6411.13-299.80L6411.13 0L6318.36 0L6318.36-522.95L6411.13-522.95L6411.13-439.45Q6461.91-532.71 6562.01-532.71Q6586.91-532.71 6633.79-523.93"/><path fill="#c2cdc3" transform="translate(26 135) scale(0.027)" d="M217.29 0L73.24 0L73.24-715.33Q210.94-720.21 249.51-720.21Q399.41-720.21 486.82-629.15Q574.22-538.09 574.22-386.72Q574.22 0 217.29 0M170.90-627.44L170.90-92.77Q203.61-87.89 251.95-87.89Q354.49-87.89 413.09-164.79Q471.68-241.70 471.68-378.42Q471.68-632.32 243.65-632.32Q229.98-632.32 170.90-627.44M1119.63-252.44L742.68-252.44Q742.68-160.64 792.97-111.33Q837.40-68.36 907.23-68.36Q986.82-68.36 1040.04-114.75L1079.10-47.85Q1057.62-26.37 1013.18-10.74Q957.52 9.77 889.16 9.77Q790.53 9.77 721.68-57.13Q645.02-130.86 645.02-255.37Q645.02-384.77 723.63-462.89Q793.95-532.71 890.14-532.71Q1001.95-532.71 1065.43-469.73Q1126.95-409.18 1126.95-309.08Q1126.95-278.32 1119.63-252.44M894.53-454.59Q832.52-454.59 790.53-414.55Q750.49-376.46 745.12-319.82L1034.67-319.82Q1034.67-375.98 999.51-413.57Q960.94-454.59 894.53-454.59M1190.43-31.25L1223.14-119.14Q1300.78-68.36 1348.14-68.36Q1434.08-68.36 1434.08-140.62Q1434.08-192.38 1351.07-229.49Q1287.11-258.79 1264.89-273.93Q1242.68-289.06 1226.32-308.35Q1209.96-327.64 1201.90-349.37Q1193.85-371.09 1193.85-396Q1193.85-460.45 1240.72-496.58Q1287.60-532.71 1363.28-532.71Q1420.41-532.71 1507.32-496.58L1480.96-410.64Q1425.78-454.59 1370.12-454.59Q1336.91-454.59 1314.21-438.96Q1291.50-423.34 1291.50-399.41Q1291.50-349.12 1348.63-323.24L1415.04-292.97Q1476.07-265.14 1503.91-229.49Q1531.74-193.85 1531.74-140.14Q1531.74-69.82 1482.42-30.03Q1433.11 9.77 1345.70 9.77Q1263.18 9.77 1190.43-31.25M1725.10-720.70Q1749.02-720.70 1765.87-703.86Q1782.71-687.01 1782.71-663.57Q1782.71-639.65 1765.87-622.80Q1749.02-605.96 1725.10-605.96Q1701.66-605.96 1684.81-622.80Q1667.97-639.65 1667.97-663.57Q1667.97-687.50 1684.57-704.10Q1701.17-720.70 1725.10-720.70M1767.09 0L1674.32 0L1674.32-444.82L1602.54-444.82L1602.54-522.95L1767.09-522.95L1767.09 0M1895.51 143.07L1945.80 68.85Q2026.86 123.05 2095.21 123.05Q2158.20 123.05 2194.58 101.32Q2230.96 79.59 2230.96 47.36Q2230.96-16.11 2139.16-16.11Q2123.54-16.11 2082.52-8.30Q2041.50-0.49 2018.55-0.49Q1907.23-0.49 1907.23-84.47Q1907.23-110.35 1933.35-131.35Q1959.47-152.34 1998.05-161.62Q1887.70-213.38 1887.70-341.31Q1887.70-423.34 1944.82-478.03Q2001.95-532.71 2085.94-532.71Q2163.09-532.71 2206.54-500.98L2252.93-556.64L2313.48-499.51L2257.81-457.52Q2293.46-411.13 2293.46-336.43Q2293.46-257.32 2244.14-203.61Q2194.82-149.90 2114.75-142.09L2038.09-134.28Q2024.41-132.81 2001.46-123.78Q1978.52-114.75 1978.52-100.10Q1978.52-80.08 2026.37-80.08Q2047.36-80.08 2091.80-87.65Q2136.23-95.21 2157.71-95.21Q2234.86-95.21 2278.08-58.35Q2321.29-21.48 2321.29 43.95Q2321.29 116.21 2256.59 160.64Q2191.89 205.08 2092.77 205.08Q2041.99 205.08 1985.84 187.01Q1929.69 168.95 1895.51 143.07M2092.29-458.01Q2043.95-458.01 2013.43-423.83Q1982.91-389.65 1982.91-340.82Q1982.91-286.13 2012.45-250.24Q2041.99-214.36 2092.29-214.36Q2141.60-214.36 2169.43-249.27Q2197.27-284.18 2197.27-340.82Q2197.27-389.65 2167.24-423.83Q2137.21-458.01 2092.29-458.01M2831.05 0L2738.28 0L2738.28-304.20Q2738.28-387.70 2713.13-421.14Q2687.99-454.59 2628.91-454.59Q2597.17-454.59 2562.50-435.55Q2527.83-416.50 2509.28-388.67L2509.28 0L2416.50 0L2416.50-522.95L2479.98-522.95L2509.28-455.57Q2555.18-532.71 2659.18-532.71Q2831.05-532.71 2831.05-323.73L2831.05 0M3779.30 0L3681.64 0L3681.64-345.70L3369.14-345.70L3369.14 0L3271.48 0L3271.48-715.33L3369.14-715.33L3369.14-428.71L3681.64-428.71L3681.64-715.33L3779.30-715.33L3779.30 0M4213.87-60.06Q4158.20 9.77 4043.46 9.77Q3981.93 9.77 3936.77-34.91Q3891.60-79.59 3891.60-146Q3891.60-225.59 3961.18-280.52Q4030.76-335.45 4138.67-335.45Q4167.97-335.45 4205.08-322.75Q4205.08-449.71 4091.80-449.71Q4004.88-449.71 3958.01-402.83L3918.95-480.47Q3945.31-501.95 3991.94-517.33Q4038.57-532.71 4081.05-532.71Q4194.82-532.71 4246.34-480.96Q4297.85-429.20 4297.85-316.41L4297.85-128.91Q4297.85-60.06 4338.87-37.11L4338.87 9.28Q4282.23 9.28 4254.15-6.84Q4226.07-22.95 4213.87-60.06M4205.08-130.37L4205.08-256.84Q4161.13-266.60 4143.55-266.60Q4073.24-266.60 4028.81-230.47Q3984.38-194.34 3984.38-145.02Q3984.38-63.48 4080.57-63.48Q4150.88-63.48 4205.08-130.37M4451.17-147.95L4451.17-737.30L4543.95-737.30L4543.95-163.57Q4543.95-121.58 4568.12-97.41Q4592.29-73.24 4631.35-73.24L4631.35 9.77Q4451.17 9.77 4451.17-147.95M5047.36-722.66L5021.48-654.30Q4993.16-664.06 4968.75-664.06Q4926.27-664.06 4898.68-631.84Q4871.09-599.61 4871.09-550.29Q4871.09-537.11 4873.54-522.95L4979.98-522.95L4979.98-444.82L4873.54-444.82L4873.54 0L4780.76 0L4780.76-444.82L4704.59-444.82L4704.59-522.95L4780.76-522.95Q4780.76-623.05 4830.08-680.18Q4879.39-737.30 4960.45-737.30Q5000.98-737.30 5047.36-722.66M5561.04 0L5416.99 0L5416.99-715.33Q5554.69-720.21 5593.26-720.21Q5743.16-720.21 5830.57-629.15Q5917.97-538.09 5917.97-386.72Q5917.97 0 5561.04 0M5514.65-627.44L5514.65-92.77Q5547.36-87.89 5595.70-87.89Q5698.24-87.89 5756.84-164.79Q5815.43-241.70 5815.43-378.42Q5815.43-632.32 5587.40-632.32Q5573.73-632.32 5514.65-627.44M5988.77-262.70Q5988.77-383.79 6053.96-458.25Q6119.14-532.71 6225.59-532.71Q6337.89-532.71 6399.90-461.18Q6461.91-389.65 6461.91-262.70Q6461.91-136.23 6398.44-63.23Q6334.96 9.77 6225.59 9.77Q6113.77 9.77 6051.27-63.96Q5988.77-137.70 5988.77-262.70M6086.43-262.70Q6086.43-65.92 6225.59-65.92Q6290.53-65.92 6327.39-118.65Q6364.26-171.39 6364.26-262.70Q6364.26-457.03 6225.59-457.03Q6162.11-457.03 6124.27-405.27Q6086.43-353.52 6086.43-262.70M6974.12 0L6881.35 0L6881.35-304.20Q6881.35-387.70 6856.20-421.14Q6831.05-454.59 6771.97-454.59Q6740.23-454.59 6705.57-435.55Q6670.90-416.50 6652.34-388.67L6652.34 0L6559.57 0L6559.57-522.95L6623.05-522.95L6652.34-455.57Q6698.24-532.71 6802.25-532.71Q6974.12-532.71 6974.12-323.73L6974.12 0M7546.39-252.44L7169.43-252.44Q7169.43-160.64 7219.73-111.33Q7264.16-68.36 7333.98-68.36Q7413.57-68.36 7466.80-114.75L7505.86-47.85Q7484.38-26.37 7439.94-10.74Q7384.28 9.77 7315.92 9.77Q7217.29 9.77 7148.44-57.13Q7071.78-130.86 7071.78-255.37Q7071.78-384.77 7150.39-462.89Q7220.70-532.71 7316.89-532.71Q7428.71-532.71 7492.19-469.73Q7553.71-409.18 7553.71-309.08Q7553.71-278.32 7546.39-252.44M7321.29-454.59Q7259.28-454.59 7217.29-414.55Q7177.25-376.46 7171.88-319.82L7461.43-319.82Q7461.43-375.98 7426.27-413.57Q7387.70-454.59 7321.29-454.59"/><rect x="461" y="64" width="38" height="76" fill="#596a63"/><rect x="575" y="64" width="38" height="76" fill="#596a63"/><rect x="499" y="64" width="19" height="19" fill="#596a63"/><rect x="556" y="64" width="19" height="19" fill="#596a63"/><path d="M461,83h38m76,0h38" stroke="#232f2b" stroke-width="3"/><path d="M461,102h38m76,0h38" stroke="#232f2b" stroke-width="3"/><path d="M461,121h38m76,0h38" stroke="#232f2b" stroke-width="3"/><path d="M461,140h38m76,0h38" stroke="#232f2b" stroke-width="3"/><rect x="462.5" y="8.5" width="16" height="16" fill="#87a88a"/><rect x="462.5" y="27.5" width="16" height="16" fill="#87a88a"/><rect x="462.5" y="46.5" width="16" height="16" fill="#87a88a"/><rect x="481.5" y="46.5" width="16" height="16" fill="#87a88a"/><rect x="500.5" y="46.5" width="16" height="16" fill="#d7b469"/><rect x="519.5" y="46.5" width="16" height="16" fill="#d7b469"/><rect x="538.5" y="46.5" width="16" height="16" fill="#d7b469"/><rect x="557.5" y="46.5" width="16" height="16" fill="#d7b469"/><rect x="595.5" y="8.5" width="16" height="16" fill="#8faab6"/><rect x="595.5" y="27.5" width="16" height="16" fill="#8faab6"/><rect x="595.5" y="46.5" width="16" height="16" fill="#8faab6"/><rect x="576.5" y="46.5" width="16" height="16" fill="#8faab6"/><rect x="462.5" y="65.5" width="16" height="16" fill="#af91c1"/><rect x="481.5" y="65.5" width="16" height="16" fill="#af91c1"/><rect x="500.5" y="65.5" width="16" height="16" fill="#af91c1"/><rect x="481.5" y="84.5" width="16" height="16" fill="#af91c1"/><rect x="462.5" y="84.5" width="16" height="16" fill="#cb8580"/><rect x="462.5" y="103.5" width="16" height="16" fill="#cb8580"/><rect x="481.5" y="103.5" width="16" height="16" fill="#cb8580"/><rect x="481.5" y="122.5" width="16" height="16" fill="#cb8580"/><rect x="576.5" y="103.5" width="16" height="16" fill="#d29b6c"/><rect x="595.5" y="103.5" width="16" height="16" fill="#d29b6c"/><rect x="576.5" y="122.5" width="16" height="16" fill="#d29b6c"/><rect x="595.5" y="122.5" width="16" height="16" fill="#d29b6c"/><rect x="557.5" y="65.5" width="16" height="16" fill="#83b6b7"/><rect x="576.5" y="65.5" width="16" height="16" fill="#83b6b7"/><rect x="576.5" y="84.5" width="16" height="16" fill="#83b6b7"/><rect x="595.5" y="84.5" width="16" height="16" fill="#83b6b7"/><g aria-label="Block-built 3D printer nozzle"><rect x="532.75" y="7.5" width="3.75" height="3.75" fill="#afbeb3"/><rect x="537.5" y="7.5" width="3.75" height="3.75" fill="#afbeb3"/><rect x="523.25" y="12.25" width="3.75" height="3.75" fill="#afbeb3"/><rect x="528" y="12.25" width="3.75" height="3.75" fill="#afbeb3"/><rect x="532.75" y="12.25" width="3.75" height="3.75" fill="#afbeb3"/><rect x="537.5" y="12.25" width="3.75" height="3.75" fill="#afbeb3"/><rect x="542.25" y="12.25" width="3.75" height="3.75" fill="#afbeb3"/><rect x="547" y="12.25" width="3.75" height="3.75" fill="#afbeb3"/><rect x="532.75" y="17" width="3.75" height="3.75" fill="#afbeb3"/><rect x="537.5" y="17" width="3.75" height="3.75" fill="#afbeb3"/><rect x="523.25" y="21.75" width="3.75" height="3.75" fill="#afbeb3"/><rect x="528" y="21.75" width="3.75" height="3.75" fill="#afbeb3"/><rect x="532.75" y="21.75" width="3.75" height="3.75" fill="#afbeb3"/><rect x="537.5" y="21.75" width="3.75" height="3.75" fill="#afbeb3"/><rect x="542.25" y="21.75" width="3.75" height="3.75" fill="#afbeb3"/><rect x="547" y="21.75" width="3.75" height="3.75" fill="#afbeb3"/><rect x="528" y="26.5" width="3.75" height="3.75" fill="#afbeb3"/><rect x="532.75" y="26.5" width="3.75" height="3.75" fill="#afbeb3"/><rect x="537.5" y="26.5" width="3.75" height="3.75" fill="#afbeb3"/><rect x="542.25" y="26.5" width="3.75" height="3.75" fill="#afbeb3"/><rect x="523.25" y="31.25" width="3.75" height="3.75" fill="#d29b6c"/><rect x="528" y="31.25" width="3.75" height="3.75" fill="#d29b6c"/><rect x="532.75" y="31.25" width="3.75" height="3.75" fill="#d29b6c"/><rect x="537.5" y="31.25" width="3.75" height="3.75" fill="#d29b6c"/><rect x="542.25" y="31.25" width="3.75" height="3.75" fill="#d29b6c"/><rect x="547" y="31.25" width="3.75" height="3.75" fill="#d29b6c"/><rect x="528" y="36" width="3.75" height="3.75" fill="#d7b469"/><rect x="532.75" y="36" width="3.75" height="3.75" fill="#d7b469"/><rect x="537.5" y="36" width="3.75" height="3.75" fill="#d7b469"/><rect x="542.25" y="36" width="3.75" height="3.75" fill="#d7b469"/><rect x="532.75" y="40.75" width="3.75" height="3.75" fill="#d7b469"/><rect x="537.5" y="40.75" width="3.75" height="3.75" fill="#d7b469"/></g><path d="M451.5,142h171" stroke="#eceee7" stroke-width="3"/></g></svg>